<svg width="100" height="33" viewBox="0 0 1 " fill="none" xmlns="http://www.w3.org/2000/svg">
    <path d="M17.5 9.5c.83 0 1.5-.67 1.5-1.5s-.67-1.5-1.5-1.5S16 7.17 16 8s.67 1.5 1.5 1.5zm-10 0c.83 0 1.5-.67 1.5-1.5s-.67-1.5-1.5-1.5S6 7.17 6 8s.67 1.5 1.5 1.5zm8.66 4.04l1.41-1.41-4.94-4.94L8.52 8.65l-1.41 1.41 4.94 4.94-1.41 1.41-4.95-4.94-1.41 1.41 6.36 6.36c.78.78 2.04.78 2.82 0 .78-.78.78-2.04 0-2.82l-1.41-1.41 4.94-4.94zM19.21 14.44c-.59.58-1.56.58-2.14 0l-6.35-6.36c-.58-.58-.58-1.56 0-2.14.58-.58 1.56-.58 2.14 0l6.36 6.35c.58.58.58 1.56 0 2.14z" fill="#000"/>
    <text x="21.5" y="18.7" font-family="Arial" font-weight="bold" font-size="16" fill="black">Puzzlefi</text>
</svg>
